<?xml version="1.0" standalone="no"?>
<!DOCTYPE svg PUBLIC "-//W3C//DTD SVG 20010904//EN"
 "http://www.w3.org/TR/2001/REC-SVG-20010904/DTD/svg10.dtd">
<svg version="1.0" xmlns="http://www.w3.org/2000/svg"
 width="1200.000000pt" height="1200.000000pt" viewBox="0 0 1200.000000 1200.000000"
 preserveAspectRatio="xMidYMid meet">

<g transform="translate(0.000000,1200.000000) scale(0.100000,-0.100000)"
fill="#000000" stroke="none">
<path d="M695 10949 c-261 -38 -448 -316 -380 -568 46 -174 191 -314 363 -350
35 -7 236 -11 582 -11 292 0 530 -3 530 -6 0 -5 294 -1681 395 -2249 24 -137
157 -889 294 -1670 138 -781 318 -1806 401 -2278 83 -472 158 -877 166 -900
44 -124 157 -230 299 -280 18 -7 171 -13 370 -17 l340 -5 -49 -29 c-71 -42
-199 -168 -256 -252 -128 -192 -170 -448 -110 -675 53 -202 180 -378 356 -492
141 -91 275 -130 449 -131 183 0 326 40 467 133 171 112 299 290 353 486 26
96 31 275 11 375 -46 224 -177 422 -361 545 l-60 40 928 3 c510 1 1344 1 1854
0 l926 -3 -59 -39 c-172 -115 -301 -296 -355 -501 -29 -111 -29 -298 0 -410
44 -170 150 -337 283 -445 79 -64 218 -134 323 -161 113 -30 307 -30 420 0
279 74 493 275 586 551 58 173 51 407 -17 574 -61 150 -187 306 -318 392 l-59
39 299 5 c321 6 332 8 430 65 57 33 144 130 175 195 119 247 7 532 -252 642
l-54 23 -3045 5 -3045 5 -71 395 c-39 217 -69 398 -67 403 2 4 1531 7 3398 7
3302 0 3395 1 3454 19 146 45 272 172 319 321 6 19 185 1034 398 2255 295
1699 386 2239 385 2301 0 172 -98 341 -239 413 -106 54 179 51 -4404 51 -4026
0 -4237 1 -4242 18 -3 9 -37 207 -76 440 -39 233 -78 444 -87 470 -22 65 -73
141 -124 186 -59 52 -170 103 -249 116 -80 12 -1488 12 -1575 -1z m9969 -2186
c-2 -10 -56 -315 -119 -678 -64 -363 -149 -849 -190 -1080 -41 -231 -121 -692
-180 -1025 -58 -333 -109 -621 -113 -640 l-8 -35 -3239 0 -3239 0 -72 410
c-40 226 -111 628 -158 895 -47 267 -151 857 -231 1312 -80 455 -145 834 -145
843 0 13 396 15 3849 15 3661 0 3849 -1 3845 -17z"/>
</g>
</svg>
